<?xml version="1.0" encoding="utf-8"?>
<!-- Generator: Adobe Illustrator 25.1.0, SVG Export Plug-In . SVG Version: 6.00 Build 0)  -->
<svg version="1.1" id="Layer_1" xmlns="http://www.w3.org/2000/svg" xmlns:xlink="http://www.w3.org/1999/xlink" x="0px" y="0px"
	 viewBox="0 0 1298.51 194.15" style="enable-background:new 0 0 1298.51 194.15;" xml:space="preserve">
<style type="text/css">
	.st0{fill:#231F20;}
	.st1{fill:#EE214F;}
</style>
<g>
	<g>
		<path d="M13.39,194.15h60.98c11.87,0,23.4-2.35,34.27-6.98l0.79-0.33c1.39-0.6,2.77-1.19,4.14-1.79
			c10.45,5.09,22.17,7.95,34.55,7.95c12.38,0,24.1-2.86,34.55-7.95c1.38,0.6,2.76,1.2,4.15,1.79l0.77,0.33
			c10.87,4.63,22.4,6.98,34.27,6.98h61.96c7.38,0,13.39-6.01,13.39-13.39V59.2c0-17.86-14.53-32.39-32.39-32.39h-45.39
			c-9.2,0-17.78-4.12-23.53-11.31C188.03,5.65,176.27,0,163.66,0h-30.1c-12.62,0-24.37,5.65-32.25,15.5
			c-4.76,5.95-11.48,9.76-18.86,10.91c0-0.01,0-0.03,0-0.04c0-8.19-6.66-14.86-14.86-14.86H46.33c-8.19,0-14.86,6.66-14.86,14.86
			c0,0.17,0.03,0.32,0.03,0.49C14.06,27.33,0,41.64,0,59.2l0,121.56C0,188.15,6.01,194.15,13.39,194.15z M40.64,26.36
			c0-3.14,2.56-5.7,5.7-5.7h21.26c3.14,0,5.7,2.56,5.7,5.7c0,0.15-0.03,0.3-0.04,0.44H40.68C40.67,26.66,40.64,26.52,40.64,26.36z
			 M72.98,113.85c0-41.43,33.7-75.13,75.13-75.13c41.43,0,75.13,33.7,75.13,75.13s-33.7,75.13-75.13,75.13
			C106.69,188.98,72.98,155.28,72.98,113.85z M163.66,11.17c9.15,0,17.77,4.17,23.63,11.44c7.88,9.77,19.6,15.37,32.15,15.37h45.39
			c11.7,0,21.22,9.52,21.22,21.22v121.56c0,1.22-0.99,2.22-2.22,2.22h-63.22c-9.25,0-18.27-1.52-26.92-4.47
			c20.29-14.35,33.58-37.97,33.58-64.66c0-43.65-35.51-79.15-79.15-79.15c-43.65,0-79.15,35.51-79.15,79.15
			c0,26.69,13.29,50.31,33.58,64.66c-8.65,2.95-17.67,4.47-26.92,4.47H13.39c-1.22,0-2.22-0.99-2.22-2.22v-26.91h42.97
			c2.22,0,4.02-1.8,4.02-4.02c0-2.22-1.8-4.02-4.02-4.02H11.17v-25.27h42.97c2.22,0,4.02-1.8,4.02-4.02c0-2.22-1.8-4.02-4.02-4.02
			H11.17V87.23h42.97c2.22,0,4.02-1.8,4.02-4.02c0-2.22-1.8-4.02-4.02-4.02H11.17V59.2c0-11.7,9.52-21.22,21.22-21.22h44.76
			c12.87,0,25.14-5.77,32.82-15.43c5.75-7.23,14.35-11.38,23.59-11.38H163.66z"/>
		<path d="M252.09,68.61c6.09,0,11.05-4.95,11.05-11.05s-4.95-11.05-11.05-11.05s-11.05,4.95-11.05,11.05S246,68.61,252.09,68.61z
			 M252.09,50.54c3.87,0,7.02,3.15,7.02,7.02s-3.15,7.02-7.02,7.02c-3.87,0-7.02-3.15-7.02-7.02S248.22,50.54,252.09,50.54z"/>
		<path class="st0" d="M148.11,170.14c7.6,0,14.97-1.49,21.91-4.43c6.7-2.84,12.72-6.89,17.89-12.06
			c5.17-5.17,9.23-11.19,12.06-17.89c2.94-6.94,4.43-14.32,4.43-21.91c0-7.6-1.49-14.97-4.43-21.91
			c-2.84-6.7-6.89-12.72-12.06-17.89c-5.17-5.17-11.19-9.23-17.89-12.06c-6.94-2.94-14.32-4.43-21.91-4.43
			c-7.6,0-14.97,1.49-21.91,4.43c-6.7,2.84-12.72,6.89-17.89,12.06c-5.17,5.17-9.23,11.19-12.06,17.89
			c-2.94,6.94-4.43,14.32-4.43,21.91c0,7.6,1.49,14.97,4.43,21.91c2.84,6.7,6.89,12.72,12.06,17.89
			c5.17,5.17,11.19,9.23,17.89,12.06C133.15,168.65,140.52,170.14,148.11,170.14z M95.09,113.85c0-29.28,23.74-53.02,53.02-53.02
			c29.28,0,53.02,23.74,53.02,53.02c0,29.28-23.74,53.02-53.02,53.02C118.83,166.88,95.09,143.14,95.09,113.85z"/>
		<path class="st1" d="M145.48,163.1c-1.74-1.33-3.4-2.78-4.98-4.35c-9.53-9.49-14.83-22.11-14.92-35.55l0,0v-14.78
			c-10.31,11.69-13.93,27.27-10.89,41.7C122.88,157.66,133.62,162.47,145.48,163.1z"/>
		<path class="st1" d="M121.88,76.6c13.42,0,26.03,5.28,35.57,14.72l10.5,10.5c-0.95-15.57-9.39-29.17-21.74-37.24
			c-11.84,0.45-22.6,5.07-30.87,12.43c2.11-0.27,4.25-0.41,6.41-0.42C121.79,76.6,121.84,76.6,121.88,76.6z"/>
		<path class="st1" d="M170.7,104.5l-0.05,14.78c10.3-11.69,13.92-27.26,10.89-41.68c-8.14-7.51-18.83-12.32-30.62-12.98
			c1.69,1.31,3.31,2.72,4.85,4.25C165.33,78.39,170.63,91.04,170.7,104.5z"/>
		<path class="st1" d="M174.36,150.95c-13.38,0-25.99-5.17-35.52-14.56l-10.51-10.45c1,15.56,9.47,29.14,21.85,37.18
			c11.87-0.49,22.66-5.18,30.92-12.62c-2.18,0.29-4.38,0.44-6.61,0.45C174.45,150.95,174.41,150.95,174.36,150.95z"/>
		<path class="st1" d="M170.65,123.17l-10.45,10.46c15.56-0.99,29.13-9.46,37.18-21.82c-0.48-11.84-5.14-22.6-12.53-30.85
			c0.28,2.14,0.42,4.3,0.43,6.49C185.31,100.92,180.11,113.6,170.65,123.17z"/>
		<path class="st1" d="M138.77,91.34l0.02-0.02h14.91c-11.68-10.36-27.28-14.02-41.73-11c-7.58,8.17-12.43,18.92-13.08,30.78
			c1.31-1.69,2.73-3.32,4.26-4.86C112.65,96.7,125.3,91.41,138.77,91.34z"/>
		<path class="st1" d="M157.45,136.39l-14.72,0c11.71,10.27,27.29,13.87,41.71,10.8c7.5-8.17,12.28-18.87,12.9-30.67
			c-1.33,1.73-2.77,3.38-4.33,4.95C183.53,131.01,170.9,136.3,157.45,136.39z"/>
		<path class="st1" d="M125.6,104.5l10.43-10.43c-15.54,0.97-29.12,9.4-37.18,21.74c0.46,11.87,5.12,22.67,12.54,30.94
			c-0.28-2.14-0.43-4.32-0.43-6.51C110.92,126.77,116.12,114.08,125.6,104.5z"/>
		<path d="M141.76,120.38c-0.86,2.96-1.29,4.87-1.29,5.73c0,0.68,0.1,1.24,0.28,1.66c0.19,0.43,0.42,0.76,0.7,1
			c0.27,0.24,0.55,0.41,0.82,0.5c0.27,0.1,0.5,0.16,0.69,0.18l0.28,0.03c0-2.09,0.9-6.25,2.69-12.49c0.31,0.46,0.63,0.75,0.95,0.88
			c0.32,0.13,0.87,0.2,1.64,0.2c1.67-0.27,3.23-0.76,4.7-1.47c1.46-0.7,2.78-1.55,3.97-2.54c1.19-0.99,2.2-2.06,3.03-3.21
			c0.83-1.15,1.43-2.26,1.79-3.32c0.36-1.07,0.54-2.04,0.54-2.91c0-1.39-0.41-2.59-1.22-3.6c-1.51-1.86-4.25-2.79-8.21-2.79
			c-1.18,0-2.34,0.07-3.5,0.21c-0.24-0.14-0.49-0.21-0.75-0.21l-0.1,0.33c-2.06,0.3-3.99,0.79-5.81,1.44
			c-1.81,0.66-3.41,1.45-4.8,2.36c-1.39,0.92-2.49,1.91-3.29,2.99c-0.8,1.08-1.2,2.18-1.2,3.32c0,0.45,0.38,1.1,1.14,1.96l0.2,0.23
			c1.19-2.02,2.82-3.81,4.9-5.37c2.08-1.56,4.64-2.71,7.68-3.47c-0.82,2.46-1.79,5.39-2.89,8.79
			C143.6,114.23,142.62,117.41,141.76,120.38z M149.14,106.77c0.92-2.65,1.6-4.34,2.05-5.07c0.04-0.09,0.07-0.18,0.09-0.28
			c1-0.1,2.04-0.16,3.13-0.16c1.32,0,2.42,0.35,3.29,1.05c0.88,0.7,1.36,1.38,1.46,2.02c0.1,0.65,0.14,1.06,0.14,1.25
			c0,0.96-0.32,1.98-0.97,3.06c-0.78,1.3-2.14,2.57-4.08,3.8c-1.95,1.23-4.59,2.32-7.94,3.26
			C147.27,112.39,148.22,109.41,149.14,106.77z"/>
		<path d="M111.13,163.27c-0.25-0.19-0.48-0.31-0.69-0.36c-0.21-0.05-0.4-0.04-0.55,0.02c-0.16,0.05-0.28,0.14-0.37,0.26
			c-0.09,0.12-0.14,0.24-0.15,0.37c-0.01,0.13,0.01,0.26,0.05,0.39c0.04,0.13,0.09,0.27,0.15,0.4c0.06,0.13,0.11,0.27,0.15,0.41
			c0.04,0.14,0.06,0.27,0.05,0.4c-0.01,0.13-0.06,0.26-0.15,0.38c-0.13,0.17-0.3,0.29-0.52,0.37c-0.21,0.07-0.38,0.06-0.5-0.03
			c-0.07-0.06-0.11-0.13-0.1-0.21c0.01-0.08,0.04-0.17,0.1-0.26c0.05-0.09,0.12-0.19,0.19-0.28c0.06-0.08,0.11-0.16,0.16-0.24
			s0.08-0.14,0.09-0.2c0.01-0.06-0.01-0.11-0.06-0.15c-0.05-0.04-0.13-0.05-0.24-0.01c-0.1,0.03-0.21,0.09-0.32,0.18
			c-0.11,0.08-0.2,0.18-0.28,0.28c-0.11,0.15-0.19,0.3-0.23,0.46c-0.08,0.34,0.05,0.64,0.38,0.89c0.2,0.15,0.42,0.24,0.66,0.25
			c0.24,0.01,0.48-0.05,0.72-0.18c0.24-0.13,0.47-0.33,0.68-0.6c0.12-0.16,0.19-0.31,0.2-0.46c0-0.01,0-0.03,0-0.04
			c0.13-0.05,0.23-0.1,0.38-0.14c0.3-0.08,0.58-0.13,0.87-0.14c0.28-0.01,0.49,0.03,0.63,0.14c0.07,0.05,0.1,0.11,0.09,0.2
			c-0.01,0.09-0.03,0.17-0.08,0.25c-0.05,0.08-0.08,0.14-0.11,0.18c-0.05,0.07-0.11,0.14-0.17,0.21c-0.06-0.08-0.13-0.15-0.2-0.2
			c-0.07-0.05-0.14-0.08-0.22-0.11c-0.16-0.05-0.33-0.06-0.51-0.03c-0.18,0.04-0.35,0.1-0.52,0.19c-0.17,0.09-0.29,0.19-0.37,0.28
			c-0.08,0.09-0.14,0.16-0.18,0.21c-0.18,0.26-0.23,0.5-0.16,0.75c0.05,0.16,0.16,0.3,0.34,0.42c0.15,0.11,0.34,0.15,0.56,0.13
			c0.22-0.02,0.45-0.09,0.69-0.2c0.24-0.11,0.48-0.26,0.71-0.44c0.23-0.18,0.4-0.34,0.51-0.48c0.11-0.14,0.19-0.24,0.23-0.3
			c0.29-0.41,0.4-0.78,0.34-1.11c-0.04-0.2-0.16-0.38-0.36-0.52c-0.38-0.27-0.86-0.3-1.43-0.09c-0.03,0.01-0.06,0.04-0.1,0.05
			c0.05-0.12,0.12-0.23,0.12-0.38C111.61,163.83,111.45,163.52,111.13,163.27z M111.46,166.62c-0.19,0.13-0.36,0.21-0.53,0.26
			c-0.17,0.05-0.3,0.04-0.41-0.03c-0.05-0.03-0.03-0.1,0.04-0.2c0.08-0.12,0.2-0.23,0.35-0.33c0.16-0.1,0.33-0.17,0.51-0.21
			c0.19-0.04,0.37-0.01,0.56,0.09C111.82,166.35,111.64,166.49,111.46,166.62z M110.52,165.14c-0.01-0.08,0-0.17-0.02-0.25
			c-0.04-0.15-0.09-0.29-0.15-0.42c-0.05-0.11-0.09-0.21-0.12-0.3c-0.03-0.1-0.05-0.19-0.05-0.28c0-0.09,0.03-0.17,0.09-0.25
			c0.08-0.1,0.16-0.13,0.26-0.08c0.09,0.05,0.16,0.08,0.2,0.11c0.29,0.23,0.43,0.59,0.42,1.07
			C110.94,164.85,110.73,164.98,110.52,165.14z"/>
		<path d="M105.83,165.64c0.79-0.46,1.5-0.93,2.13-1.43c0.63-0.5,1.13-0.96,1.48-1.39c0.07-0.09,0.12-0.18,0.16-0.28
			c0.03-0.1,0.03-0.21,0-0.32c-0.03-0.11-0.11-0.21-0.23-0.31c-0.12-0.1-0.34-0.15-0.64-0.13c-0.3,0.02-0.63,0.09-0.99,0.22
			c-0.36,0.13-0.69,0.33-1,0.58c0.51-0.12,0.92-0.17,1.23-0.17c0.31,0,0.51,0.05,0.61,0.13c0.05,0.04,0.03,0.12-0.07,0.23
			c-0.15,0.19-0.48,0.46-0.98,0.83c-0.77,0.57-1.57,1.08-2.39,1.54l-0.2-0.16c-0.3-0.25-0.6-0.53-0.9-0.84
			c-0.02-0.03-0.05-0.05-0.06-0.06c-0.05-0.05-0.1-0.05-0.12-0.02c-0.05,0.06-0.02,0.21,0.1,0.45c0.11,0.22,0.34,0.52,0.69,0.9
			c-0.25,0.13-0.46,0.23-0.62,0.28c-0.01,0.01-0.03,0.02-0.05,0.04c-0.03,0.04-0.06,0.1-0.08,0.19c-0.03,0.12-0.04,0.25-0.03,0.38
			c0.01,0.14,0.04,0.22,0.08,0.26c0.43-0.18,0.86-0.38,1.28-0.6c0.1,0.08,0.2,0.17,0.31,0.26c0.15,0.13,0.3,0.22,0.46,0.3
			c0.16,0.07,0.29,0.1,0.4,0.07c0.11-0.03,0.21-0.09,0.29-0.18c0.04-0.05,0.08-0.11,0.11-0.17l-0.27-0.15
			C106.36,165.98,106.13,165.83,105.83,165.64z"/>
		<path d="M101.46,160.52c0.71-0.16,1.35-0.26,1.92-0.3c0.57-0.04,1.06-0.05,1.47-0.04c0.24,0,0.45,0,0.63,0
			c0.18-0.01,0.34-0.03,0.47-0.05c0.13-0.03,0.23-0.08,0.3-0.16c0.06-0.06,0.1-0.14,0.13-0.22c0.14,0.04,0.27,0.04,0.37,0.02
			c0.1-0.02,0.17-0.08,0.2-0.18c-0.39-0.1-0.76-0.28-1.11-0.53c-0.34-0.25-0.63-0.51-0.86-0.79c-0.23-0.28-0.37-0.51-0.42-0.7
			c-0.11,0-0.2,0.03-0.28,0.09c-0.08,0.05-0.13,0.12-0.16,0.21c-0.03,0.09-0.01,0.2,0.04,0.32c0.05,0.13,0.16,0.27,0.33,0.43
			c0.17,0.16,0.39,0.34,0.66,0.51c0.27,0.18,0.54,0.33,0.8,0.45c-0.32,0.02-0.7,0.04-1.16,0.04c-0.53,0-1.1,0.02-1.69,0.06
			c-0.6,0.04-1.17,0.14-1.72,0.29c-0.41,0.13-0.73,0.31-0.95,0.55c-0.23,0.24-0.36,0.49-0.39,0.76c-0.03,0.27,0.04,0.52,0.21,0.74
			c0.17,0.22,0.46,0.38,0.85,0.47c0.39,0.09,0.91,0.08,1.53-0.04c0.16-0.04,0.29-0.13,0.38-0.26c0.09-0.13,0.12-0.26,0.1-0.4
			c-0.43,0.16-0.82,0.24-1.19,0.24c-0.37,0-0.68-0.06-0.93-0.18c-0.25-0.12-0.42-0.26-0.5-0.43c-0.08-0.17-0.05-0.34,0.1-0.51
			C100.74,160.77,101.03,160.63,101.46,160.52z"/>
		<path d="M101.27,159.19c0.34-0.16,0.66-0.35,0.96-0.55c0.3-0.2,0.57-0.41,0.8-0.64c0.23-0.22,0.41-0.45,0.54-0.68
			c0.13-0.23,0.19-0.46,0.19-0.68s-0.1-0.43-0.28-0.62c-0.15-0.16-0.35-0.27-0.59-0.31c-0.24-0.04-0.51-0.04-0.81,0.01
			c-0.3,0.05-0.61,0.13-0.94,0.26c-0.32,0.12-0.65,0.27-0.97,0.45c-0.32,0.18-0.63,0.38-0.92,0.59c-0.29,0.21-0.55,0.43-0.78,0.66
			c-0.23,0.23-0.41,0.45-0.55,0.68c-0.13,0.22-0.21,0.43-0.23,0.63c-0.02,0.2,0.05,0.37,0.19,0.52c0.14,0.15,0.33,0.25,0.57,0.3
			c0.24,0.05,0.52,0.05,0.83,0.01c0.31-0.04,0.63-0.11,0.97-0.22C100.59,159.49,100.93,159.35,101.27,159.19z M98.91,159.15
			c-0.21-0.02-0.37-0.08-0.48-0.2c-0.06-0.07-0.06-0.17,0-0.31c0.07-0.14,0.18-0.29,0.35-0.47c0.17-0.17,0.36-0.36,0.6-0.54
			c0.23-0.19,0.49-0.37,0.76-0.54c0.27-0.18,0.55-0.33,0.83-0.47c0.28-0.14,0.55-0.24,0.81-0.32c0.26-0.07,0.49-0.1,0.7-0.09
			c0.21,0.01,0.37,0.08,0.49,0.21c0.11,0.12,0.14,0.26,0.1,0.42c-0.05,0.16-0.15,0.33-0.31,0.51c-0.16,0.18-0.36,0.36-0.6,0.54
			c-0.24,0.18-0.5,0.35-0.79,0.51c-0.28,0.16-0.58,0.3-0.87,0.42c-0.29,0.12-0.58,0.21-0.85,0.27
			C99.36,159.15,99.12,159.17,98.91,159.15z"/>
		<path d="M97.93,156.35c-0.44,0.11-0.84,0.15-1.21,0.1c-0.37-0.04-0.66-0.14-0.9-0.28c-0.24-0.15-0.39-0.3-0.45-0.48
			c-0.06-0.18-0.01-0.34,0.15-0.49c0.16-0.15,0.47-0.26,0.91-0.32c0.72-0.08,1.37-0.11,1.94-0.08c0.57,0.03,1.05,0.07,1.46,0.13
			c0.24,0.03,0.45,0.05,0.63,0.06c0.18,0.01,0.34,0.01,0.47,0c0.13-0.02,0.24-0.05,0.32-0.12c0.07-0.06,0.12-0.13,0.15-0.2
			c0.14,0.05,0.26,0.07,0.36,0.06c0.1-0.01,0.18-0.06,0.22-0.15c-0.38-0.15-0.73-0.36-1.04-0.65c-0.32-0.28-0.57-0.58-0.77-0.88
			c-0.2-0.3-0.31-0.55-0.33-0.74c-0.11-0.01-0.2,0.01-0.29,0.05c-0.09,0.04-0.15,0.11-0.18,0.2c-0.04,0.09-0.04,0.2,0,0.33
			c0.04,0.13,0.13,0.29,0.27,0.46c0.15,0.18,0.35,0.38,0.6,0.59c0.25,0.21,0.5,0.39,0.75,0.54c-0.32-0.01-0.7-0.04-1.15-0.09
			c-0.53-0.06-1.09-0.1-1.69-0.13c-0.6-0.03-1.18,0-1.74,0.1c-0.42,0.08-0.76,0.23-1.01,0.44c-0.25,0.21-0.41,0.45-0.48,0.71
			c-0.06,0.27-0.02,0.52,0.13,0.75c0.15,0.24,0.41,0.43,0.8,0.57c0.38,0.14,0.89,0.18,1.52,0.14c0.17-0.03,0.31-0.1,0.41-0.22
			C97.88,156.62,97.93,156.49,97.93,156.35z"/>
		<path d="M94.48,152.94c-0.11-0.05-0.21-0.09-0.32-0.11c0.35-0.13,0.79-0.29,1.33-0.48c0.54-0.2,1.03-0.38,1.49-0.55
			c0.46-0.17,0.75-0.29,0.88-0.34c0.19-0.1,0.32-0.22,0.38-0.38c0.19,0.18,0.44,0.38,0.77,0.6c0.11,0.06,0.22,0.07,0.33,0.03
			c0.11-0.04,0.2-0.13,0.27-0.26c-0.48-0.27-0.86-0.55-1.15-0.86c-0.28-0.31-0.47-0.57-0.55-0.79c-0.06,0.05-0.12,0.11-0.16,0.2
			c-0.04,0.09-0.05,0.19-0.02,0.33c0.03,0.13,0.12,0.29,0.25,0.47c-0.95,0.46-1.93,0.86-2.95,1.2c-1.02,0.34-1.72,0.51-2.1,0.53
			c-0.07,0.09-0.13,0.16-0.17,0.22c-0.04,0.06-0.07,0.12-0.09,0.18c-0.02,0.06-0.02,0.11,0.01,0.15c0.02,0.02,0.07,0.05,0.16,0.07
			c0.09,0.02,0.19,0.05,0.32,0.07c0.19,0.04,0.39,0.09,0.6,0.14c0.21,0.06,0.39,0.13,0.54,0.22c0.15,0.09,0.23,0.2,0.24,0.32
			c0.06-0.05,0.12-0.1,0.16-0.15c0.04-0.05,0.07-0.1,0.1-0.16c0.03-0.06,0.04-0.13,0.04-0.2c0-0.07-0.03-0.15-0.09-0.22
			C94.68,153.07,94.59,152.99,94.48,152.94z"/>
		<path d="M169.33,54.87c-0.52,0.68-0.82,1.12-0.91,1.34c-0.07,0.17-0.1,0.33-0.09,0.46c0,0.13,0.03,0.24,0.08,0.32
			c0.05,0.09,0.1,0.16,0.16,0.21c0.06,0.05,0.11,0.09,0.16,0.12l0.07,0.04c0.21-0.54,0.86-1.52,1.95-2.94
			c0.04,0.15,0.09,0.26,0.16,0.32c0.07,0.06,0.2,0.14,0.4,0.22c0.46,0.1,0.91,0.13,1.35,0.1c0.45-0.04,0.87-0.12,1.28-0.26
			c0.4-0.13,0.77-0.31,1.1-0.52c0.33-0.21,0.6-0.44,0.79-0.68c0.2-0.24,0.34-0.47,0.43-0.69c0.14-0.36,0.16-0.71,0.05-1.05
			c-0.2-0.63-0.81-1.14-1.83-1.54c-0.3-0.12-0.61-0.22-0.92-0.29c-0.05-0.06-0.1-0.11-0.17-0.13l-0.06,0.07
			c-0.56-0.13-1.11-0.2-1.64-0.21c-0.53-0.01-1.02,0.03-1.47,0.12c-0.45,0.1-0.83,0.24-1.14,0.44c-0.31,0.2-0.53,0.44-0.64,0.73
			c-0.04,0.11-0.01,0.32,0.1,0.62l0.03,0.08c0.51-0.4,1.11-0.7,1.8-0.89c0.69-0.19,1.46-0.23,2.32-0.12c-0.46,0.55-1,1.2-1.63,1.97
			C170.42,53.47,169.85,54.19,169.33,54.87z M173.63,51.01c0.02-0.02,0.04-0.04,0.05-0.06c0.27,0.07,0.54,0.16,0.82,0.27
			c0.34,0.13,0.59,0.33,0.74,0.6c0.16,0.27,0.21,0.49,0.17,0.67c-0.04,0.18-0.07,0.29-0.09,0.34c-0.1,0.25-0.28,0.48-0.56,0.69
			c-0.33,0.26-0.81,0.45-1.43,0.57c-0.62,0.12-1.41,0.13-2.37,0.04c0.58-0.75,1.13-1.43,1.63-2.01
			C173.1,51.52,173.45,51.16,173.63,51.01z"/>
		<path d="M174.6,56.23c-0.3,0.39-0.5,0.66-0.57,0.81c-0.05,0.09-0.06,0.19-0.05,0.29c0.02,0.1,0.04,0.19,0.09,0.28
			c0.05,0.09,0.09,0.16,0.14,0.22c0.05,0.06,0.09,0.09,0.11,0.1l0.2-0.28c0.13-0.19,0.33-0.41,0.59-0.66
			c0.26-0.25,0.57-0.49,0.94-0.71c0.37-0.22,0.79-0.37,1.26-0.45c-0.21,0.18-0.41,0.38-0.61,0.61c-0.2,0.22-0.35,0.42-0.46,0.6
			c-0.11,0.17-0.18,0.3-0.23,0.4c-0.2,0.4-0.27,0.74-0.21,1.01c0.04,0.18,0.16,0.32,0.35,0.41c0.12,0.06,0.3,0.06,0.54,0
			c0.25-0.06,0.52-0.18,0.83-0.39c0.05-0.03,0.11-0.08,0.16-0.12c-0.16,0.35-0.24,0.68-0.17,0.96c0.04,0.19,0.15,0.34,0.34,0.44
			c0.4,0.23,0.79,0.21,1.17-0.05c0.05,0.13,0.16,0.23,0.33,0.33c0.22,0.12,0.51,0.09,0.89-0.11c0.2-0.11,0.36-0.28,0.54-0.44
			c-0.25,0.29-0.46,0.57-0.62,0.83c-0.06,0.09-0.1,0.2-0.12,0.3c-0.02,0.11-0.01,0.21,0.04,0.32c0.04,0.1,0.13,0.2,0.27,0.28
			s0.35,0.1,0.65,0.04c0.3-0.05,0.61-0.17,0.95-0.35c0.04-0.02,0.07-0.06,0.11-0.08c-0.22,0.37-0.33,0.71-0.29,1.01
			c0.03,0.19,0.13,0.35,0.3,0.47c0.38,0.26,0.77,0.27,1.18,0.04c0.04,0.13,0.14,0.25,0.3,0.35c0.21,0.14,0.51,0.13,0.89-0.04
			c0.13-0.06,0.24-0.17,0.36-0.25c-0.08,0.08-0.17,0.17-0.22,0.24c-0.24,0.32-0.36,0.61-0.35,0.86c0,0.18,0.09,0.34,0.26,0.47
			c0.15,0.12,0.36,0.16,0.64,0.15c0.27-0.02,0.56-0.09,0.87-0.23c-0.16,0.19-0.33,0.39-0.5,0.61l-0.08,0.11
			c-0.77-0.15-1.37-0.16-1.81-0.05c-0.44,0.11-0.75,0.29-0.93,0.53c-0.19,0.25-0.27,0.51-0.24,0.79c0.03,0.26,0.13,0.46,0.3,0.59
			c0.21,0.16,0.5,0.22,0.86,0.15c0.36-0.06,0.74-0.22,1.14-0.47c0.4-0.24,0.77-0.57,1.12-0.96c0.41-0.01,0.77-0.06,1.09-0.15
			c0.32-0.1,0.6-0.21,0.83-0.33c0.16-0.08,0.25-0.15,0.36-0.23c0.39-0.15,0.76-0.32,1.06-0.5c0.43-0.25,0.74-0.46,0.92-0.61
			c0.07,0.06,0.13,0.13,0.2,0.2c0.07,0.07,0.11,0.15,0.12,0.21c0.02,0.07-0.02,0.12-0.11,0.16c-0.05,0.02-0.16,0.07-0.3,0.16
			c-0.14,0.08-0.31,0.19-0.5,0.31c-0.19,0.13-0.39,0.27-0.59,0.43c-0.2,0.16-0.39,0.32-0.56,0.49c-0.17,0.17-0.31,0.34-0.42,0.51
			c-0.11,0.17-0.16,0.33-0.17,0.48c-0.01,0.15,0.06,0.29,0.2,0.4c0.13,0.11,0.29,0.18,0.47,0.2c0.18,0.02,0.37,0.01,0.57-0.04
			c0.2-0.04,0.39-0.1,0.57-0.18c-0.24,0.27-0.37,0.52-0.39,0.76c-0.02,0.18,0.05,0.35,0.21,0.5c0.13,0.13,0.33,0.2,0.59,0.21
			c0.26,0.02,0.54-0.02,0.85-0.11c-0.1,0.1-0.17,0.22-0.23,0.36c-0.06,0.14-0.08,0.27-0.08,0.41c0,0.14,0.06,0.26,0.17,0.35
			c0.11,0.1,0.3,0.15,0.57,0.15c0.24,0,0.53-0.06,0.84-0.14c-0.03,0.02-0.07,0.05-0.1,0.07c-0.1,0.09-0.17,0.21-0.2,0.35
			c-0.03,0.14-0.04,0.27-0.03,0.39c0.01,0.12,0.04,0.2,0.07,0.24c0.56-0.23,1.15-0.39,1.77-0.48c0.63-0.09,1.15-0.14,1.56-0.16
			c-0.21,0.08-0.44,0.18-0.68,0.29c-0.24,0.11-0.48,0.23-0.71,0.37c-0.23,0.13-0.42,0.27-0.57,0.41c-0.14,0.13-0.22,0.29-0.25,0.48
			s0.01,0.34,0.11,0.45c0.61-0.23,1.7-0.45,3.26-0.65c-0.24,0.11-0.48,0.23-0.71,0.37c-0.23,0.14-0.4,0.25-0.5,0.34
			c-0.11,0.09-0.17,0.15-0.2,0.17c-0.35,0.33-0.54,0.63-0.55,0.91c-0.01,0.16,0.05,0.32,0.18,0.46c0.09,0.09,0.26,0.16,0.5,0.19
			c0.25,0.03,0.55,0.01,0.91-0.07c0.36-0.08,0.75-0.23,1.18-0.46c-0.38,0.05-0.69,0.07-0.93,0.07c-0.24,0-0.43-0.03-0.56-0.07
			c-0.13-0.04-0.23-0.1-0.29-0.16c-0.04-0.05-0.01-0.11,0.09-0.2c0.13-0.12,0.34-0.26,0.62-0.42c0.23-0.13,0.46-0.25,0.71-0.36
			c0.24-0.11,0.44-0.18,0.61-0.22c0.01,0,0.03-0.01,0.04-0.03c0.04-0.03,0.06-0.09,0.09-0.17c0.04-0.12,0.06-0.24,0.06-0.38
			c0-0.14-0.03-0.24-0.09-0.31c-0.12-0.14-0.52-0.18-1.18-0.13c-0.53,0.04-1.13,0.13-1.78,0.27c0.51-0.23,1.02-0.43,1.52-0.59
			c0.03-0.01,0.07-0.03,0.09-0.05c0.04-0.04,0.08-0.1,0.11-0.17c0.04-0.12,0.06-0.26,0.05-0.4c-0.01-0.15-0.06-0.27-0.15-0.37
			c-0.08-0.09-0.32-0.11-0.71-0.09c-0.4,0.03-0.84,0.09-1.33,0.18s-0.94,0.2-1.35,0.31c0.49-0.27,1.05-0.5,1.66-0.68
			c0.26-0.08,0.4-0.13,0.44-0.17c0.06-0.05,0.11-0.14,0.16-0.24c0.04-0.1,0.06-0.21,0.06-0.32c0-0.11-0.03-0.2-0.1-0.27l-0.36,0.12
			c-0.24,0.09-0.53,0.2-0.87,0.33c-0.27,0.11-0.54,0.23-0.8,0.36c-0.29,0.03-0.59,0.08-0.83,0.07c-0.35-0.01-0.57-0.05-0.67-0.15
			c-0.04-0.04,0-0.12,0.12-0.25c0.16-0.16,0.35-0.32,0.58-0.46c0.22-0.13,0.42-0.2,0.61-0.22c0.03,0,0.05-0.01,0.07-0.04
			c0.09-0.1,0.13-0.25,0.12-0.47c-0.01-0.13-0.05-0.24-0.15-0.33c-0.04-0.04-0.11-0.03-0.22,0.01c0.1-0.12,0.17-0.25,0.23-0.39
			c0.06-0.14,0.07-0.28,0.05-0.42c-0.02-0.14-0.1-0.28-0.24-0.42c-0.12-0.12-0.29-0.18-0.51-0.18c-0.22,0-0.45,0.03-0.71,0.11
			c-0.26,0.08-0.51,0.18-0.77,0.32c-0.24,0.13-0.42,0.25-0.59,0.38c-0.08,0.01-0.19,0.03-0.26,0.04c-0.22,0.02-0.43,0.03-0.63,0.02
			c-0.21-0.01-0.35-0.06-0.45-0.14c-0.06-0.05,0-0.16,0.16-0.31c0.17-0.16,0.38-0.33,0.65-0.51c0.27-0.18,0.53-0.34,0.8-0.47
			c0.26-0.13,0.47-0.19,0.62-0.18c0.04,0,0.09-0.04,0.13-0.12c0.04-0.08,0.08-0.17,0.11-0.27c0.03-0.11,0.04-0.21,0.04-0.31
			c-0.01-0.1-0.04-0.18-0.1-0.23c-0.07-0.06-0.17-0.15-0.3-0.25c-0.13-0.11-0.26-0.2-0.37-0.3c0.05-0.04,0.1-0.1,0.16-0.17
			c0.05-0.07,0.1-0.14,0.14-0.23c0.04-0.09,0.05-0.17,0.04-0.26c-0.01-0.09-0.07-0.17-0.16-0.26c-0.07-0.06-0.19-0.08-0.35-0.06
			c-0.17,0.02-0.33,0.06-0.48,0.14c-0.15,0.08-0.25,0.18-0.29,0.31c-0.04,0.13,0.02,0.28,0.19,0.45c-0.11,0.11-0.3,0.25-0.55,0.43
			c-0.25,0.18-0.54,0.35-0.87,0.51c-0.33,0.16-0.67,0.26-1.03,0.3c-0.1,0.03-0.13,0.06-0.11,0.11c0.01,0.02,0.06,0.05,0.1,0.07
			c-0.35,0.07-0.68,0.11-1,0.12c0.23-0.28,0.44-0.5,0.64-0.68c0.19-0.18,0.36-0.31,0.51-0.41c0.14-0.1,0.26-0.16,0.34-0.2l0.12-0.05
			l0.03-0.09c0.02-0.06,0.04-0.13,0.05-0.22c0.01-0.09,0.02-0.18,0-0.27c-0.01-0.09-0.06-0.16-0.13-0.22
			c-0.04-0.04-0.12-0.03-0.23,0.01c0.08-0.13,0.14-0.27,0.18-0.41c0.04-0.14,0.04-0.29,0.01-0.43c-0.04-0.14-0.13-0.27-0.28-0.39
			c-0.13-0.1-0.31-0.15-0.52-0.13c-0.22,0.02-0.45,0.08-0.69,0.18c-0.25,0.1-0.49,0.24-0.74,0.4c-0.17,0.12-0.3,0.23-0.42,0.34
			c-0.37,0.15-0.66,0.24-0.81,0.23c-0.19-0.01-0.32-0.05-0.4-0.1c-0.08-0.05-0.13-0.13-0.16-0.23c0.1-0.06,0.23-0.15,0.37-0.27
			c0.14-0.12,0.28-0.25,0.43-0.4c0.14-0.15,0.27-0.31,0.39-0.48c0.12-0.17,0.2-0.34,0.26-0.51c0.06-0.16,0.07-0.32,0.04-0.47
			c-0.03-0.15-0.12-0.27-0.28-0.38c-0.21-0.15-0.44-0.21-0.69-0.21c-0.25,0-0.5,0.06-0.75,0.18c-0.25,0.11-0.48,0.26-0.7,0.44
			c-0.21,0.17-0.35,0.32-0.45,0.45c-0.26,0.08-0.5,0.14-0.69,0.16c-0.3,0.03-0.51,0.02-0.62-0.05c-0.05-0.03-0.04-0.11,0.04-0.24
			c0.13-0.2,0.41-0.52,0.86-0.94c0.69-0.66,1.42-1.27,2.17-1.83l0.22,0.13c0.33,0.21,0.66,0.45,1,0.71
			c0.03,0.02,0.05,0.04,0.07,0.06c0.06,0.04,0.1,0.04,0.13,0c0.04-0.07-0.01-0.21-0.16-0.43c-0.14-0.21-0.41-0.48-0.8-0.8
			c0.23-0.16,0.43-0.28,0.58-0.36c0.02-0.01,0.03-0.02,0.04-0.05c0.03-0.04,0.04-0.11,0.05-0.2c0.01-0.13,0-0.26-0.02-0.39
			c-0.02-0.13-0.06-0.21-0.12-0.24c-0.4,0.24-0.8,0.49-1.19,0.76c-0.11-0.07-0.22-0.14-0.34-0.22c-0.16-0.1-0.33-0.18-0.49-0.24
			c-0.16-0.05-0.3-0.06-0.41-0.01c-0.11,0.04-0.2,0.12-0.26,0.22c-0.03,0.05-0.06,0.11-0.09,0.19l0.29,0.11
			c0.19,0.08,0.44,0.19,0.76,0.35c-0.72,0.55-1.37,1.11-1.93,1.69c-0.18,0.19-0.33,0.36-0.48,0.53c-0.41,0.21-0.72,0.34-0.88,0.35
			c-0.19,0-0.32-0.02-0.41-0.07c-0.08-0.05-0.14-0.12-0.18-0.21c0.1-0.07,0.22-0.17,0.35-0.3s0.26-0.27,0.39-0.43
			c0.13-0.16,0.25-0.33,0.35-0.51c0.1-0.18,0.17-0.35,0.22-0.52c0.04-0.17,0.04-0.33,0-0.48c-0.04-0.15-0.15-0.26-0.31-0.36
			c-0.22-0.13-0.46-0.18-0.7-0.15c-0.25,0.03-0.49,0.1-0.73,0.23c-0.24,0.14-0.46,0.3-0.67,0.5c-0.21,0.2-0.35,0.37-0.44,0.51
			c-0.01,0.02-0.01,0.02-0.02,0.04c-0.1,0.04-0.22,0.11-0.31,0.14c-0.23,0.08-0.41,0.13-0.55,0.13c-0.14,0.01-0.25-0.01-0.33-0.05
			c-0.05-0.03-0.05-0.1,0.01-0.22c0.08-0.16,0.22-0.36,0.43-0.61c0.17-0.21,0.35-0.4,0.53-0.59c0.19-0.19,0.35-0.33,0.5-0.43
			c0.01-0.01,0.02-0.02,0.03-0.04c0.02-0.04,0.03-0.11,0.02-0.19c0-0.12-0.03-0.25-0.08-0.38c-0.05-0.13-0.11-0.21-0.2-0.26
			c-0.2-0.1-0.53-0.1-0.98,0.02c-0.45,0.11-0.93,0.35-1.43,0.71c0.61-0.73,1.21-1.38,1.81-1.96c0.6-0.57,1.03-0.94,1.28-1.1
			c0.01-0.01,0.03-0.03,0.04-0.05c0.02-0.05,0.03-0.11,0.03-0.2c0-0.13-0.02-0.26-0.06-0.38c-0.04-0.13-0.08-0.21-0.14-0.24
			c-0.08-0.04-0.27,0.08-0.58,0.35c-0.3,0.27-0.66,0.63-1.07,1.06c-0.41,0.43-0.82,0.89-1.22,1.36S174.91,55.85,174.6,56.23z
			 M183.98,65.69c-0.3,0.08-0.51,0.07-0.65-0.04c-0.1-0.08-0.14-0.14-0.1-0.19l0.05-0.07c0.07-0.09,0.24-0.16,0.5-0.22
			c0.27-0.05,0.65-0.07,1.15-0.04C184.59,65.42,184.27,65.61,183.98,65.69z M190.85,66.62c0.43-0.26,0.81-0.41,1.13-0.44
			c0.17-0.01,0.29,0.02,0.38,0.1c0.15,0.14,0.04,0.4-0.32,0.78c-0.05,0.05-0.1,0.1-0.16,0.15c-0.27,0.15-0.56,0.27-0.87,0.38
			c-0.48,0.17-0.8,0.19-0.95,0.04c-0.12-0.11-0.07-0.29,0.15-0.52C190.38,66.95,190.59,66.78,190.85,66.62z M185.79,62.48
			c0.4-0.3,0.76-0.49,1.08-0.55c0.16-0.03,0.29-0.01,0.38,0.06c0.16,0.12,0.08,0.39-0.24,0.81c-0.05,0.06-0.09,0.11-0.14,0.17
			c-0.33,0.21-0.61,0.37-0.83,0.47c-0.46,0.22-0.77,0.27-0.94,0.14c-0.13-0.1-0.1-0.28,0.1-0.53
			C185.35,62.86,185.54,62.67,185.79,62.48z M184.25,60.06c0.16-0.04,0.29-0.03,0.39,0.04c-0.01,0-0.02,0-0.03,0
			c0,0,0.02,0.01,0.04,0.01c0.05,0.06,0.05,0.14-0.01,0.25s-0.11,0.2-0.16,0.27c-0.2,0.3-0.46,0.58-0.77,0.84
			c-0.2,0.16-0.38,0.29-0.56,0.37c-0.18,0.08-0.32,0.08-0.43,0.01c-0.09-0.06-0.12-0.15-0.09-0.28c0.03-0.13,0.1-0.26,0.2-0.41
			c0.12-0.17,0.26-0.34,0.42-0.49C183.6,60.35,183.94,60.14,184.25,60.06z M178.9,58.05c0.32-0.37,0.64-0.6,0.95-0.71
			c0.15-0.05,0.29-0.05,0.4,0.01c-0.02,0-0.02,0-0.03,0c0,0,0.02,0,0.04,0.01c0.06,0.06,0.06,0.14,0.01,0.26
			c-0.05,0.11-0.1,0.21-0.14,0.28c-0.18,0.31-0.41,0.61-0.7,0.9c-0.18,0.18-0.36,0.32-0.53,0.41c-0.17,0.09-0.31,0.11-0.43,0.05
			c-0.09-0.05-0.13-0.15-0.11-0.27c0.02-0.13,0.07-0.27,0.16-0.43C178.62,58.38,178.75,58.21,178.9,58.05z"/>
		<path d="M198.18,76.35c-0.73,0.26-1.19,0.44-1.37,0.57c-0.15,0.11-0.27,0.22-0.33,0.33c-0.07,0.11-0.11,0.21-0.11,0.32
			c-0.01,0.1,0,0.19,0.02,0.26c-0.18-0.19-0.35-0.39-0.5-0.61l-0.02,0.12c-0.01,0.08-0.02,0.18-0.03,0.3
			c-0.01,0.12,0,0.24,0.01,0.36c0.01,0.12,0.05,0.22,0.11,0.31c0.29,0.41,0.64,0.75,1.05,1.04c0.41,0.28,0.84,0.49,1.29,0.64
			c0.45,0.14,0.87,0.2,1.28,0.18c0.41-0.02,0.74-0.12,1.02-0.31c0.31-0.22,0.5-0.48,0.57-0.79c0.05-0.25,0.04-0.5-0.04-0.74
			c0.52,0.28,1,0.47,1.47,0.55c0.46,0.08,0.87,0.08,1.24,0c0.37-0.08,0.68-0.21,0.94-0.39c0.3-0.21,0.52-0.47,0.66-0.77
			c0.13-0.29,0.18-0.6,0.15-0.93c-0.03-0.33-0.16-0.67-0.4-1c-0.2-0.29-0.44-0.56-0.72-0.81c0.09-0.24,0.08-0.43-0.02-0.57
			l-0.49,0.14c-0.52-0.39-1.06-0.7-1.63-0.93c-0.57-0.23-1.1-0.37-1.6-0.41c-0.5-0.04-0.88,0.03-1.16,0.23
			c-0.16,0.11-0.31,0.27-0.43,0.47c-0.15,0.23-0.18,0.41-0.08,0.55c0.49-0.34,1.11-0.47,1.87-0.38c0.71,0.09,1.4,0.34,2.09,0.75
			c-0.71,0.22-1.52,0.46-2.4,0.74C199.72,75.83,198.91,76.1,198.18,76.35z M200.4,78.89c-0.06,0.11-0.13,0.2-0.21,0.26
			c-0.25,0.18-0.58,0.25-0.98,0.21c-0.41-0.03-0.84-0.16-1.3-0.38c-0.46-0.22-0.9-0.54-1.33-0.94c0.48-0.3,1.39-0.69,2.72-1.16
			c0.14,0.15,0.27,0.28,0.41,0.41c0.2,0.19,0.35,0.36,0.46,0.52c0.18,0.25,0.27,0.48,0.29,0.69
			C200.48,78.64,200.45,78.77,200.4,78.89z M203.89,75.48c0.22,0.2,0.41,0.41,0.56,0.63c0.2,0.29,0.31,0.56,0.32,0.8
			c0,0.24-0.05,0.42-0.15,0.55c-0.11,0.12-0.2,0.21-0.28,0.27c-0.31,0.22-0.73,0.33-1.25,0.33c-0.32,0-0.66-0.05-1.01-0.16
			c-0.77-0.23-1.42-0.67-1.95-1.33c0.81-0.28,1.57-0.52,2.26-0.72C203.07,75.66,203.57,75.53,203.89,75.48z"/>
		<path d="M204.08,82.53c-0.28,0.06-0.5,0.12-0.65,0.2c-0.07,0.03-0.09,0.04-0.13,0.06c-0.22-0.03-0.39-0.06-0.48-0.11
			c-0.16-0.09-0.27-0.18-0.32-0.26c-0.05-0.08-0.06-0.17-0.05-0.27c0.12-0.01,0.27-0.04,0.45-0.09s0.36-0.11,0.55-0.18
			c0.19-0.07,0.38-0.16,0.56-0.27c0.18-0.1,0.33-0.22,0.45-0.35c0.12-0.13,0.2-0.27,0.24-0.41c0.03-0.15,0-0.3-0.09-0.46
			c-0.13-0.22-0.31-0.38-0.54-0.48c-0.23-0.1-0.48-0.15-0.75-0.16s-0.55,0.03-0.83,0.1c-0.28,0.07-0.49,0.15-0.64,0.23
			c-0.15,0.08-0.24,0.13-0.28,0.16c-0.46,0.27-0.73,0.57-0.83,0.9c-0.06,0.19-0.03,0.37,0.07,0.55c0.23,0.4,0.58,0.57,1.05,0.54
			c-0.01,0.13,0.03,0.28,0.12,0.45c0.13,0.22,0.4,0.33,0.83,0.34c0.05,0,0.11-0.02,0.16-0.03c-0.35,0.22-0.61,0.46-0.7,0.74
			c-0.07,0.18-0.05,0.37,0.05,0.55c0.21,0.4,0.55,0.6,1.02,0.59c-0.02,0.13,0.01,0.28,0.1,0.45c0.12,0.22,0.39,0.35,0.81,0.38
			c0.18,0.01,0.36-0.04,0.54-0.06c-0.31,0.1-0.59,0.21-0.84,0.33c-0.1,0.05-0.19,0.11-0.26,0.19c-0.07,0.08-0.12,0.18-0.14,0.29
			c-0.02,0.11,0.01,0.24,0.08,0.38c0.07,0.15,0.24,0.27,0.52,0.39c0.28,0.11,0.61,0.18,0.99,0.22c0.06,0,0.12-0.02,0.18-0.01
			c-0.25,0.06-0.46,0.11-0.56,0.16c-0.1,0.04-0.17,0.1-0.22,0.18c-0.05,0.09-0.09,0.18-0.11,0.27c-0.02,0.1-0.03,0.18-0.03,0.26
			c0,0.08,0,0.13,0.01,0.15l0.34-0.08c0.22-0.05,0.52-0.09,0.87-0.12c0.36-0.03,0.75,0,1.18,0.07c0.42,0.07,0.84,0.23,1.25,0.48
			c-0.28,0-0.56,0.02-0.86,0.06c-0.3,0.04-0.54,0.09-0.73,0.15s-0.34,0.11-0.44,0.16c-0.42,0.17-0.69,0.38-0.82,0.63
			c-0.08,0.16-0.09,0.35,0,0.54c0.05,0.12,0.19,0.24,0.41,0.35c0.18,0.09,0.44,0.15,0.71,0.2c-0.1,0.08-0.19,0.18-0.28,0.3
			c-0.21,0.3-0.24,0.64-0.1,1.03c0.11,0.3,0.24,0.52,0.39,0.67c0.15,0.16,0.31,0.25,0.47,0.28c0.16,0.04,0.31,0.03,0.45-0.02
			c0.14-0.05,0.25-0.13,0.33-0.23c0.07-0.1,0.13-0.22,0.17-0.35c0.04-0.13,0.07-0.27,0.09-0.42c0.03-0.15,0.06-0.29,0.09-0.42
			c0.04-0.14,0.1-0.26,0.17-0.37c0.08-0.11,0.19-0.19,0.34-0.24c0.21-0.08,0.42-0.09,0.64-0.03c0.22,0.05,0.35,0.15,0.4,0.29
			c0.03,0.09,0.02,0.16-0.03,0.23c-0.05,0.06-0.13,0.12-0.23,0.17c-0.1,0.05-0.2,0.09-0.31,0.13c-0.1,0.04-0.18,0.07-0.26,0.11
			c-0.08,0.04-0.14,0.08-0.18,0.13c-0.04,0.05-0.05,0.1-0.03,0.16c0.02,0.06,0.09,0.11,0.19,0.14c0.11,0.03,0.23,0.04,0.36,0.02
			c0.13-0.01,0.27-0.04,0.39-0.09c0.17-0.06,0.32-0.15,0.44-0.27c0.25-0.24,0.3-0.56,0.16-0.95c-0.09-0.24-0.22-0.43-0.42-0.56
			c-0.19-0.14-0.43-0.22-0.7-0.24c-0.27-0.02-0.57,0.03-0.9,0.15c-0.18,0.07-0.32,0.16-0.42,0.28c-0.01,0.01-0.01,0.03-0.02,0.04
			c-0.25-0.06-0.5-0.12-0.67-0.19c-0.22-0.08-0.39-0.17-0.5-0.26c-0.11-0.09-0.18-0.17-0.22-0.25c-0.02-0.05,0.03-0.11,0.15-0.16
			c0.16-0.07,0.4-0.13,0.72-0.18c0.26-0.05,0.52-0.08,0.79-0.1c0.26-0.02,0.48-0.02,0.65,0c0.02,0,0.03,0,0.05-0.01
			c0.04-0.02,0.09-0.06,0.14-0.13c0.08-0.09,0.14-0.21,0.19-0.34c0.05-0.13,0.05-0.24,0.02-0.33c-0.09-0.21-0.34-0.42-0.75-0.63
			c-0.42-0.21-0.93-0.34-1.55-0.39c0.94-0.16,1.82-0.26,2.65-0.3c0.83-0.05,1.39-0.05,1.69,0c0.02,0,0.04,0,0.06-0.01
			c0.05-0.02,0.1-0.07,0.16-0.13c0.08-0.1,0.15-0.21,0.21-0.33c0.05-0.12,0.07-0.21,0.05-0.27c-0.03-0.08-0.26-0.12-0.67-0.11
			c-0.3,0.01-0.66,0.03-1.05,0.07c0,0,0,0,0,0c0-0.25-0.09-0.62-0.25-1.11c0.28-0.01,0.51-0.01,0.69,0.01c0.02,0,0.04,0,0.06-0.02
			c0.04-0.02,0.1-0.07,0.15-0.14c0.08-0.1,0.14-0.21,0.19-0.34c0.05-0.12,0.06-0.22,0.04-0.27c-0.47-0.02-0.94-0.02-1.41,0.01
			c-0.05-0.12-0.11-0.24-0.17-0.37c-0.08-0.18-0.18-0.33-0.29-0.46c-0.11-0.13-0.22-0.21-0.34-0.23c-0.12-0.02-0.23-0.01-0.34,0.04
			c-0.06,0.03-0.11,0.06-0.18,0.11l0.18,0.25c0.12,0.17,0.27,0.4,0.45,0.7c-0.91,0.08-1.75,0.2-2.54,0.38
			c-0.28,0.06-0.51,0.14-0.75,0.21c-0.42-0.04-0.73-0.1-0.86-0.18c-0.16-0.1-0.26-0.19-0.31-0.27c-0.04-0.08-0.06-0.18-0.03-0.28
			c0.12,0,0.27-0.03,0.45-0.06c0.18-0.04,0.37-0.09,0.56-0.16s0.39-0.15,0.57-0.24c0.18-0.1,0.34-0.2,0.47-0.33
			c0.13-0.12,0.22-0.25,0.26-0.4c0.04-0.14,0.02-0.3-0.07-0.47c-0.12-0.23-0.29-0.39-0.51-0.51c-0.22-0.11-0.47-0.18-0.74-0.19
			C204.64,82.45,204.37,82.47,204.08,82.53z M201.6,81.59c-0.05-0.09-0.04-0.19,0.04-0.29c0.08-0.1,0.2-0.2,0.35-0.29
			c0.18-0.11,0.38-0.19,0.59-0.26c0.46-0.16,0.85-0.2,1.17-0.14c0.16,0.03,0.27,0.1,0.34,0.21c-0.01-0.01-0.02-0.01-0.02-0.01
			c0,0.01,0.01,0.01,0.03,0.03c0.02,0.08-0.02,0.15-0.12,0.23c-0.1,0.07-0.19,0.13-0.26,0.18c-0.31,0.18-0.66,0.33-1.06,0.43
			c-0.25,0.06-0.47,0.1-0.66,0.09C201.79,81.76,201.66,81.7,201.6,81.59z M207.49,90.9c-0.06,0.09-0.12,0.18-0.15,0.28
			c-0.04,0.15-0.07,0.29-0.1,0.43c-0.02,0.11-0.04,0.22-0.06,0.32c-0.03,0.1-0.07,0.19-0.11,0.26c-0.05,0.07-0.12,0.13-0.21,0.16
			c-0.12,0.04-0.2,0.02-0.26-0.07c-0.05-0.09-0.09-0.16-0.11-0.2c-0.13-0.36-0.05-0.75,0.24-1.17
			C206.96,90.94,207.21,90.93,207.49,90.9z M206.01,86.08c0.94-0.18,1.88-0.31,2.82-0.38l0.11,0.23c0.13,0.27,0.24,0.57,0.36,0.88
			c-0.04,0-0.07,0.01-0.11,0.01c-0.59,0.06-1.2,0.14-1.81,0.24c-0.5,0.08-0.92,0.15-1.33,0.23c-0.38-0.09-0.71-0.19-0.94-0.31
			c-0.28-0.14-0.44-0.26-0.5-0.38c-0.03-0.05,0.03-0.11,0.16-0.18C204.99,86.31,205.4,86.2,206.01,86.08z M205.62,83.57
			c-0.01-0.01-0.02-0.01-0.02-0.01c0,0.01,0.01,0.02,0.03,0.03c0.02,0.08-0.03,0.15-0.13,0.22c-0.11,0.07-0.19,0.12-0.27,0.16
			c-0.32,0.17-0.68,0.29-1.08,0.38c-0.25,0.05-0.47,0.07-0.67,0.06c-0.2-0.01-0.32-0.07-0.38-0.19c-0.05-0.09-0.03-0.19,0.05-0.29
			c0.08-0.1,0.21-0.19,0.37-0.27c0.19-0.1,0.38-0.18,0.6-0.24c0.47-0.14,0.86-0.16,1.18-0.08
			C205.46,83.38,205.56,83.46,205.62,83.57z"/>
		<path d="M124.6,24.24c0,4.04,3.27,7.31,7.31,7.31h33.41c4.04,0,7.31-3.27,7.31-7.31s-3.27-7.31-7.31-7.31H131.9
			C127.87,16.93,124.6,20.21,124.6,24.24z M165.02,22.12c1.17,0,2.12,0.95,2.12,2.12c0,1.17-0.95,2.12-2.12,2.12H132.2
			c-1.17,0-2.12-0.95-2.12-2.12c0-1.17,0.95-2.12,2.12-2.12H165.02z"/>
	</g>
	<g>
		<path class="st1" d="M358.17,49.06h-45.69v124.92h18.21V132.4h27.48c26.95,0,40.51-20.7,40.51-41.58S385.12,49.06,358.17,49.06z
			 M358.17,114.55h-27.48v-47.3h27.48c15.17,0,22.67,11.78,22.67,23.73C380.84,102.77,373.34,114.55,358.17,114.55z"/>
		<polygon class="st1" points="477.57,101.88 424.74,101.88 424.74,49.23 406.72,49.23 406.72,173.98 424.74,173.98 424.74,119.73 
			477.57,119.73 477.57,173.98 495.77,173.98 495.77,49.23 477.57,49.23 		"/>
		<path class="st1" d="M571.44,47.45c-17.49,0-33.55,7.32-44.97,18.92c-11.24,11.6-18.56,27.48-18.56,45.15s7.32,33.55,18.56,45.15
			c11.42,11.78,27.48,18.92,44.97,18.92c17.67,0,33.55-7.13,45.15-18.92c11.24-11.6,18.56-27.48,18.56-45.15
			s-7.32-33.55-18.56-45.15C604.99,54.77,589.1,47.45,571.44,47.45z M603.74,143.82c-8.39,8.39-19.99,13.56-32.3,13.56
			s-23.74-5.17-31.94-13.56c-8.21-8.21-13.39-19.63-13.39-32.3s5.18-24.09,13.39-32.3c8.21-8.39,19.63-13.56,31.94-13.56
			s23.91,5.17,32.3,13.56c8.03,8.21,13.21,19.45,13.21,32.3S611.77,135.61,603.74,143.82z"/>
		<polygon class="st1" points="722.24,49.06 628.73,49.06 628.73,67.26 666.56,67.26 666.56,174.52 684.59,174.52 684.59,67.26 
			722.24,67.26 		"/>
		<path class="st1" d="M783.28,47.45c-17.49,0-33.55,7.32-44.97,18.92c-11.24,11.6-18.56,27.48-18.56,45.15s7.32,33.55,18.56,45.15
			c11.42,11.78,27.48,18.92,44.97,18.92c17.67,0,33.55-7.13,45.15-18.92c11.24-11.6,18.56-27.48,18.56-45.15
			s-7.32-33.55-18.56-45.15C816.83,54.77,800.95,47.45,783.28,47.45z M815.58,143.82c-8.39,8.39-19.99,13.56-32.3,13.56
			s-23.74-5.17-31.94-13.56c-8.21-8.21-13.39-19.63-13.39-32.3s5.18-24.09,13.39-32.3c8.21-8.39,19.63-13.56,31.94-13.56
			s23.91,5.17,32.3,13.56c8.03,8.21,13.21,19.45,13.21,32.3S823.61,135.61,815.58,143.82z"/>
		<path d="M910.35,132.22h46.22c-7.49,18.2-23.91,25.34-39.26,25.34c-24.45,0-43.37-19.45-43.37-45.87
			c0-26.23,18.92-45.33,43.37-45.33c15.89,0,35.16,7.32,40.16,27.48h19.27c-6.6-33.2-35.51-45.51-59.43-45.51
			c-34.44,0-61.39,26.41-61.39,63.35c0,36.76,26.41,63.18,61.39,63.18c22.67,0,48.36-15.35,56.93-39.26v0.18
			c1.61-4.1,2.5-11.06,3.39-21.59h-67.28V132.22z"/>
		<path d="M1121.29,47.45l-46.94,118.45l-32.65-38.86c21.42-3.74,32.3-20.52,32.3-38.19c0-19.81-13.56-39.8-40.69-39.8H987.8v124.92
			h17.85V67.26h27.66c15.17,0,22.67,10.89,22.67,21.59c0,10.89-7.49,21.78-22.67,21.78h-21.06v8.56l45.51,54.79h13.39h9.99h9.46
			c3.93-10.35,10.17-25.34,14.99-36.76h44.79l14.99,36.76h19.27L1134.5,47.45H1121.29z M1112.37,120.26l15.71-44.08l15.35,44.08
			H1112.37z"/>
		<polygon points="1284.23,49.06 1243.01,109.73 1201.78,49.06 1187.15,49.06 1187.15,173.98 1205.17,173.98 1205.17,86 
			1237.83,134.54 1248,134.54 1280.66,86 1280.66,173.98 1298.51,173.98 1298.51,49.06 		"/>
	</g>
</g>
</svg>
